# xmcd
#
# Track frame offsets: 
#        150
#        11242
#        16986
#        30462
#        36122
#        41675
#        53857
#        63356
#        68999
#        77090
#        90828
#        108820
#        117605
#        125154
#        138999
#        147308
#        191765
#
# Disc length: 3174 seconds
#
# Revision: 5
# Processed by: cddbd v1.5.2PL0 Copyright (c) Steve Scherf et al.
# Submitted via: ExactAudioCopyFreeDBPlugin 1.0
#
DISCID=ec0c6411
DTITLE=Willie Nelson - Crazy: The Demo Sessions
DYEAR=2003
DGENRE=Country
TTITLE0=Opportunity To Cry
TTITLE1=Three Days
TTITLE2=Undo The Right
TTITLE3=What Do You Think Of Her Now
TTITLE4=I've Just Destroyed The World
TTITLE5=Permanently Lonely
TTITLE6=Are You Sure
TTITLE7=Darkness On The Face Of The Earth
TTITLE8=Things To Remember
TTITLE9=A Moment Isn't Very Long
TTITLE10=Crazy
TTITLE11=The Local Memory
TTITLE12=I Gotta Get Drunk
TTITLE13=Something To Think About
TTITLE14=I'm Still Here
TTITLE15=Save Your Tears
TTITLE16=Half A Man
EXTD=YEAR: 2003
EXTT0=
EXTT1=
EXTT2=
EXTT3=
EXTT4=
EXTT5=
EXTT6=
EXTT7=
EXTT8=
EXTT9=
EXTT10=
EXTT11=
EXTT12=
EXTT13=
EXTT14=
EXTT15=
EXTT16=
PLAYORDER=
